<?xml version="1.0"?>
<svg width="56" height="56" xmlns="http://www.w3.org/2000/svg" xmlns:svg="http://www.w3.org/2000/svg">

 <g class="layer">
  <title>Layer 1</title>
  <g id="011---Alien-Space-Ship" transform="rotate(178.945, 28.0001, 27.9951)">
   <path d="m4,45c-0.55228,0 -1,0.44772 -1,1l0,6c0,0.55228 0.44772,1 1,1s1,-0.44772 1,-1l0,-1l0,-5c0,-0.55228 -0.44772,-1 -1,-1z" id="Shape"/>
   <path d="m1,44.62c0.08686,-0.41725 0.2998,-0.79774 0.61,-1.09c0.18206,-0.1606 0.38782,-0.29215 0.61,-0.39c0.51,-0.14 0.67,-0.14 2.78,-0.14c1.10457,0 2,0.89543 2,2c0,1.56 2.57,2.59 7,2.9l-5.47,-7.81c-0.34854,-0.50558 -0.53353,-1.10594 -0.53,-1.72l0,-7.45l-8,5.6l0,5.82c0.0007,0.79538 0.31723,1.55793 0.88,2.12l0.12,0.16z" id="Shape"/>
   <path d="m8,11.45c0.00099,-1.17419 0.41518,-2.31057 1.17,-3.21l5.58,-6.66c0.33407,-0.36166 0.33248,-0.91981 -0.00363,-1.27956s-0.89288,-0.3992 -1.27637,-0.09044l-12.39,10.36c-0.68293,0.56883 -1.07848,1.4112 -1.08,2.3l0,11.21l8,-5.6l0,-7.03z" id="Shape"/>
   <path d="m28,27c-1,0 -2.76,0 -3,5l6,0c-0.24,-5 -2,-5 -3,-5z" id="Shape"/>
   <path d="m56,12.87c-0.00152,-0.8888 -0.39707,-1.73117 -1.08,-2.3l-12.41,-10.38c-0.20054,-0.15813 -0.45728,-0.22684 -0.71,-0.19c-0.32034,0.08074 -0.58014,0.31447 -0.69416,0.62453s-0.06756,0.65643 0.12416,0.92547l5.6,6.68c0.75703,0.90206 1.17136,2.04238 1.17,3.22l0,7l8,5.6l0,-11.18z" id="Shape"/>
   <path d="m8,20.92l-8,5.6l0,2.56l8,-5.6l0,-2.56z" id="Shape"/>
   <path d="m8,25.92l-8,5.6l0,2.56l8,-5.6l0,-2.56z" id="Shape"/>
   <path d="m56,36.52l-8,-5.6l0,7.45c0.0006,0.61514 -0.18792,1.21559 -0.54,1.72l-5.46,7.81c4.44,-0.31 7,-1.34 7,-2.9c0,-1.10457 0.89543,-2 2,-2c1.94,0 3.41,-0.32 4,1.62l0.16,-0.16c0.54813,-0.56856 0.84996,-1.33032 0.84,-2.12l0,-5.82z" id="Shape"/>
   <path d="m25.18,48l5.64,0c-0.46,-1.42 -1.73,-3 -2.82,-3s-2.36,1.58 -2.82,3z" id="Shape"/>
   <path d="m56,26.52l-8,-5.6l0,2.56l8,5.6l0,-2.56z" id="Shape"/>
   <path d="m56,31.52l-8,-5.6l0,2.56l8,5.6l0,-2.56z" id="Shape"/>
   <path d="m52,45c-0.55228,0 -1,0.44772 -1,1l0,6c0,0.55228 0.44772,1 1,1s1,-0.44772 1,-1l0,-6c0,-0.55228 -0.44772,-1 -1,-1z" id="Shape"/>
   <path d="m18,56c0.31476,0 0.61115,-0.14819 0.8,-0.4l1.8,-2.4c0.56656,-0.75542 1.45573,-1.2 2.4,-1.2l10,0c0.94427,0 1.83344,0.44458 2.4,1.2l1.8,2.4c0.18885,0.25181 0.48524,0.4 0.8,0.4l4.34,0c0.79538,-0.0007 1.55793,-0.31723 2.12,-0.88l4.54,-4.53l0,-2.37c-1.94,1.18 -5.27,1.78 -10,1.78c-0.04655,0.00468 -0.09345,0.00468 -0.14,0c-1.00497,0.0759 -1.99557,-0.27414 -2.72975,-0.96457c-0.73419,-0.69044 -1.14434,-1.65769 -1.13025,-2.66543l0,-14.37c0,-6.06 -2.29,-9 -7,-9s-7,2.94 -7,9l0,14.37c0.01102,1.00678 -0.40007,1.97218 -1.13353,2.66193c-0.73346,0.68976 -1.72226,1.04085 -2.72647,0.96807c-0.04655,0.00468 -0.09345,0.00468 -0.14,0c-4.73,0 -8.06,-0.6 -10,-1.78l0,2.37l4.54,4.53c0.56207,0.56277 1.32462,0.8793 2.12,0.88l4.34,0zm7,-22c-0.54822,0.00069 -1.07269,-0.2237 -1.45078,-0.62069s-0.57663,-0.93177 -0.54922,-1.47931c0.21,-4.64 1.84,-6.9 5,-6.9s4.77,2.26 5,6.91c0.02459,0.54585 -0.17522,1.07799 -0.55299,1.47276c-0.37777,0.39477 -0.90061,0.61779 -1.44701,0.61724l-2,0l0,9.16c2.28,0.72 4,3.76 4,5.84c0,0.55228 -0.44772,1 -1,1l-8,0c-0.55228,0 -1,-0.44772 -1,-1c0,-2.08 1.72,-5.12 4,-5.84l0,-9.16l-2,0z" id="Shape"/>
  </g>
 </g>
</svg>