<?xml version="1.0" encoding="iso-8859-1"?>
<!-- Generator: Adobe Illustrator 16.0.0, SVG Export Plug-In . SVG Version: 6.00 Build 0)  -->
<!DOCTYPE svg PUBLIC "-//W3C//DTD SVG 1.1//EN" "http://www.w3.org/Graphics/SVG/1.1/DTD/svg11.dtd">
<svg version="1.1" id="Capa_1" xmlns="http://www.w3.org/2000/svg" xmlns:xlink="http://www.w3.org/1999/xlink" x="0px" y="0px"
	 width="56px" height="56px" viewBox="0 0 550.8 550.8" style="enable-background:new 0 0 550.8 550.8;" xml:space="preserve"
	>
<g>
	<g>
		<path d="M263.16,389.062v79.523c0,6.76,5.48,12.24,12.24,12.24c6.76,0,12.24-5.48,12.24-12.24v-79.523
			c0-6.76-5.48-12.24-12.24-12.24C268.64,376.822,263.16,382.302,263.16,389.062z"/>
		<path d="M77.173,358.817l-56.23,56.23c-4.78,4.78-4.78,12.531,0,17.311c2.39,2.39,5.523,3.583,8.657,3.583
			c3.134,0,6.264-1.196,8.657-3.583l56.23-56.23c4.78-4.78,4.78-12.531,0-17.311C89.704,354.037,81.956,354.037,77.173,358.817z"/>
		<path d="M473.624,358.817c-4.78-4.779-12.531-4.779-17.311,0c-4.78,4.779-4.78,12.53,0,17.311l56.233,56.23
			c2.39,2.39,5.523,3.583,8.656,3.583c3.134,0,6.265-1.196,8.657-3.583c4.779-4.78,4.779-12.531,0-17.311L473.624,358.817z"/>
		<path d="M84.569,314.964c51.139,18.623,118.912,28.88,190.831,28.88c71.92,0,139.689-10.257,190.828-28.88
			c54.538-19.859,84.572-47.639,84.572-78.22c0-33.577-35.067-62.962-98.938-83.082c-14.349-48.152-88.245-83.688-176.462-83.688
			c-88.216,0-162.109,35.536-176.458,83.685C35.067,173.782,0,203.167,0,236.744C0,267.326,30.034,295.105,84.569,314.964z
			 M275.399,306.393c-21.447,0-38.25-13.121-38.25-29.869c0-16.747,16.802-29.868,38.25-29.868c21.448,0,38.25,13.121,38.25,29.868
			C313.649,293.272,296.848,306.393,275.399,306.393z M437.146,218.219c15.113,0,27.259,7.585,30.939,19.321
			c5.009,15.982-7.1,33.528-27.562,39.945c-4.798,1.503-9.676,2.265-14.495,2.265c-15.113,0-27.259-7.586-30.939-19.321
			c-5.01-15.982,7.099-33.528,27.562-39.945C427.448,218.981,432.326,218.219,437.146,218.219z M289.13,109.476
			c35.463-4.468,70.86,4.449,100.099,24.976c11.212,7.87,0.523,26.454-10.811,18.495c-26.586-18.669-57.078-26.111-89.285-22.054
			C275.449,132.619,275.614,111.177,289.13,109.476z M142.479,178.161c5.56-2.014,11.702,0.872,13.709,6.438
			c3.087,8.55,46.748,24.496,119.211,24.496c72.464,0,116.124-15.949,119.212-24.499c2.008-5.56,8.148-8.446,13.709-6.438
			c5.562,2.007,8.445,8.146,6.438,13.708c-11.014,30.505-92.779,38.645-139.359,38.645c-46.579,0-128.345-8.14-139.358-38.642
			C134.034,186.306,136.917,180.168,142.479,178.161z M82.715,237.54c3.678-11.738,15.823-19.321,30.939-19.321
			c4.823,0,9.697,0.762,14.495,2.264c20.465,6.42,32.574,23.966,27.562,39.945c-3.678,11.738-15.823,19.321-30.939,19.321
			c-4.823,0-9.697-0.762-14.495-2.265C89.811,271.065,77.706,253.519,82.715,237.54z"/>
	</g>
</g>
<g>
</g>
<g>
</g>
<g>
</g>
<g>
</g>
<g>
</g>
<g>
</g>
<g>
</g>
<g>
</g>
<g>
</g>
<g>
</g>
<g>
</g>
<g>
</g>
<g>
</g>
<g>
</g>
<g>
</g>
</svg>
