<?xml version="1.0" encoding="iso-8859-1"?>
<!-- Generator: Adobe Illustrator 19.0.0, SVG Export Plug-In . SVG Version: 6.00 Build 0)  -->
<svg version="1.1" id="Capa_1" xmlns="http://www.w3.org/2000/svg" xmlns:xlink="http://www.w3.org/1999/xlink" width="56px" height="56px"
	 viewBox="0 0 512 512" style="enable-background:new 0 0 512 512;" xml:space="preserve">
<g>
	<g>
		<g>
			<path d="M492.435,285.315c-1.601-1.601-3.772-2.499-6.035-2.498h-35.45c-2.264-0.001-4.435,0.897-6.035,2.498
				s-2.499,3.772-2.498,6.035v97.525h-18.375v-26.817c0.001-2.264-0.897-4.435-2.498-6.035c-1.601-1.601-3.772-2.499-6.035-2.498
				h-26.917V220.65c0.001-2.264-0.897-4.435-2.498-6.035s-3.772-2.499-6.035-2.498h-35.442c-2.264-0.001-4.435,0.897-6.035,2.498
				c-1.601,1.601-2.499,3.772-2.498,6.035v97.525H317.7V114.592c0.001-2.264-0.897-4.435-2.498-6.035s-3.772-2.499-6.035-2.498
				h-25.225V8.533c0.001-2.264-0.897-4.435-2.498-6.035S277.672-0.001,275.408,0h-35.45c-2.264-0.001-4.435,0.897-6.035,2.498
				s-2.499,3.772-2.498,6.035v97.525h-28.592c-2.264-0.001-4.435,0.897-6.035,2.498s-2.499,3.772-2.498,6.035v203.583h-18.383
				V220.65c0.001-2.264-0.897-4.435-2.498-6.035s-3.772-2.499-6.035-2.498h-35.442c-2.264-0.001-4.435,0.897-6.035,2.498
				c-1.601,1.601-2.499,3.772-2.498,6.035v132.875H96.492c-2.264-0.001-4.435,0.897-6.035,2.498
				c-1.601,1.601-2.499,3.772-2.498,6.035v26.817H69.583V291.35c0.001-2.264-0.897-4.435-2.498-6.035s-3.772-2.499-6.035-2.498H25.6
				c-2.264-0.001-4.435,0.897-6.035,2.498s-2.499,3.772-2.498,6.035v141.408c-0.001,2.264,0.897,4.435,2.498,6.035
				s3.772,2.499,6.035,2.498h62.358v26.825c-0.001,2.264,0.897,4.435,2.498,6.035s3.772,2.499,6.035,2.498h62.358v26.817
				c-0.001,2.264,0.897,4.435,2.498,6.035c1.601,1.601,3.772,2.499,6.035,2.498h35.45c2.264,0.001,4.435-0.897,6.035-2.498
				c1.601-1.601,2.499-3.772,2.498-6.035V476.65h18.375v26.817c-0.001,2.264,0.897,4.435,2.498,6.035
				c1.601,1.601,3.772,2.499,6.035,2.498h35.45c2.264,0.001,4.435-0.897,6.035-2.498c1.601-1.601,2.499-3.772,2.498-6.035V476.65
				h18.375v26.817c-0.001,2.264,0.897,4.435,2.498,6.035s3.772,2.499,6.035,2.498h35.45c2.264,0.001,4.435-0.897,6.035-2.498
				c1.601-1.601,2.499-3.772,2.498-6.035V476.65h62.358c2.264,0.001,4.435-0.897,6.035-2.498c1.601-1.601,2.499-3.772,2.498-6.035
				v-26.825H486.4c2.264,0.001,4.435-0.897,6.035-2.498c1.601-1.601,2.499-3.772,2.498-6.035V291.35
				C494.935,289.086,494.036,286.915,492.435,285.315z M353.15,229.183h18.375v18.283H353.15V229.183z M140.475,229.183h18.375
				v18.283h-18.375V229.183z M34.133,299.883h18.383v18.292H34.133V299.883z M194.3,494.933h-18.383V476.65H194.3V494.933z
				 M229.742,459.583h-18.375v-18.292h18.375V459.583z M300.633,459.583h-18.375v-18.292h18.375V459.583z M336.083,494.933H317.7
				V476.65h18.383V494.933z M477.867,424.225h-62.358c-2.264-0.001-4.435,0.897-6.035,2.498s-2.499,3.772-2.498,6.035v26.825H317.7
				v-26.825c0.001-2.264-0.897-4.435-2.498-6.035s-3.772-2.499-6.035-2.498h-35.442c-2.264-0.001-4.435,0.897-6.035,2.498
				s-2.499,3.772-2.498,6.035v62.175h-18.383v-62.175c0.001-2.264-0.897-4.435-2.498-6.035s-3.772-2.499-6.035-2.498h-35.442
				c-2.264-0.001-4.435,0.897-6.035,2.498c-1.601,1.601-2.499,3.772-2.498,6.035v26.825h-89.275v-26.825
				c0.001-2.264-0.897-4.435-2.498-6.035s-3.772-2.499-6.035-2.498H34.133v-88.983h18.383v62.167
				c-0.001,2.264,0.897,4.435,2.498,6.035s3.772,2.499,6.035,2.498h35.442c2.264,0.001,4.435-0.897,6.035-2.498
				s2.499-3.772,2.498-6.035v-26.817h26.917c2.264,0.001,4.435-0.897,6.035-2.498s2.499-3.772,2.498-6.035v-97.525h18.375v62.175
				c-0.001,2.264,0.897,4.435,2.498,6.035c1.601,1.601,3.772,2.499,6.035,2.498h35.45c2.264,0.001,4.435-0.897,6.035-2.498
				c1.601-1.601,2.499-3.772,2.498-6.035V123.125h28.592c2.264,0.001,4.435-0.897,6.035-2.498c1.601-1.601,2.499-3.772,2.498-6.035
				V17.067h18.383v97.525c-0.001,2.264,0.897,4.435,2.498,6.035c1.601,1.601,3.772,2.499,6.035,2.498h25.225v203.583
				c-0.001,2.264,0.897,4.435,2.498,6.035c1.601,1.601,3.772,2.499,6.035,2.498h35.45c2.264,0.001,4.435-0.897,6.035-2.498
				c1.601-1.601,2.499-3.772,2.498-6.035v-62.175h18.375v97.525c-0.001,2.264,0.897,4.435,2.498,6.035s3.772,2.499,6.035,2.498
				h26.917v26.817c-0.001,2.264,0.897,4.435,2.498,6.035s3.772,2.499,6.035,2.498h35.442c2.264,0.001,4.435-0.897,6.035-2.498
				s2.499-3.772,2.498-6.035v-62.167h18.383V424.225z M477.867,318.175h-18.383v-18.292h18.383V318.175z"/>
			<path d="M309.167,353.525h-26.908V291.35c0.001-2.264-0.897-4.435-2.498-6.035s-3.772-2.499-6.035-2.498h-35.45
				c-2.264-0.001-4.435,0.897-6.035,2.498s-2.499,3.772-2.498,6.035v62.175h-26.908c-2.264-0.001-4.435,0.897-6.035,2.498
				s-2.499,3.772-2.498,6.035v35.35c-0.001,2.264,0.897,4.435,2.498,6.035s3.772,2.499,6.035,2.498h35.442
				c2.264,0.001,4.435-0.897,6.035-2.498s2.499-3.772,2.498-6.035v-26.817h18.383v26.817c-0.001,2.264,0.897,4.435,2.498,6.035
				s3.772,2.499,6.035,2.498h35.442c2.264,0.001,4.435-0.897,6.035-2.498s2.499-3.772,2.498-6.035v-35.35
				c0.001-2.264-0.897-4.435-2.498-6.035S311.43,353.524,309.167,353.525z M229.742,388.875h-18.375v-18.283h18.375V388.875z
				 M265.192,353.525h-18.383v-53.642h18.383V353.525z M300.633,388.875h-18.375v-18.283h18.375V388.875z"/>
		</g>
	</g>
</g>
<g>
</g>
<g>
</g>
<g>
</g>
<g>
</g>
<g>
</g>
<g>
</g>
<g>
</g>
<g>
</g>
<g>
</g>
<g>
</g>
<g>
</g>
<g>
</g>
<g>
</g>
<g>
</g>
<g>
</g>
</svg>
